<svg xmlns="http://www.w3.org/2000/svg" width="147.471" height="47.828" viewBox="0 0 147.471 47.828">
  <g id="Group_1" data-name="Group 1" transform="translate(-436 -360)">
    <path id="Path_1" data-name="Path 1" d="M693.314,360A14.314,14.314,0,1,0,707.6,374.34,14.314,14.314,0,0,0,693.314,360Zm-.05,21.439a7.157,7.157,0,1,1,7.17-7.144A7.157,7.157,0,0,1,693.264,381.439Z" transform="translate(-209.553)" fill="#ef7667"/>
    <path id="Path_2" data-name="Path 2" d="M938.014,360a3.579,3.579,0,0,0-3.2,1.99l0,0-7.343,15.78a.2.2,0,0,1-.362,0l-7.214-15.474-.218-.468h0a3.579,3.579,0,0,0-6.486,2.97l.45,1.035,8.748,18.82.567,1.2a4.772,4.772,0,0,0,8.693-.044l.548-1.153,8.991-19.393A3.578,3.578,0,0,0,938.014,360Z" transform="translate(-411.366 0)" fill="#ef7667"/>
    <path id="Path_3" data-name="Path 3" d="M1398.681,363.231a3.578,3.578,0,0,0-4.464-2.311v-.006l-.064.02a19.045,19.045,0,0,0-6.033,3.249v-.6a3.579,3.579,0,0,0-7.157,0V378.7q-.008.383,0,.767v5.584a3.579,3.579,0,0,0,7.157,0v-5.723q0-.239,0-.477a11.933,11.933,0,0,1,8.111-11.064c.051-.014.1-.029.151-.045l.02-.007.118-.042A3.578,3.578,0,0,0,1398.681,363.231Z" transform="translate(-815.386 0)" fill="#ef7667"/>
    <path id="Path_4" data-name="Path 4" d="M463.583,383.427h0l-3.359-3.333c-.03-.038-.061-.075-.093-.111a3.617,3.617,0,0,0-5.042-.383,7.144,7.144,0,0,1-11.413-7.958l.008-.019c.033-.083.069-.165.105-.247.022-.049.044-.1.067-.145s.041-.086.062-.128c.046-.091.092-.181.142-.271l.006-.011a7.16,7.16,0,0,1,11.311-1.573h0c.068.068.139.132.211.193A7.148,7.148,0,0,1,457.3,372.7h0a3.579,3.579,0,0,0,6.978-1.589l-.048-.248a12.512,12.512,0,0,0-1.33-3.423,14.267,14.267,0,0,0-8.6-6.872l-.158-.044-.128-.035a14.3,14.3,0,1,0-5.721,27.976l.1.015.179.023A14.259,14.259,0,0,0,457,386.972l1.524,1.51h0a3.577,3.577,0,0,0,5.217-4.889C463.689,383.535,463.637,383.48,463.583,383.427Z" transform="translate(0 0)" fill="#ef7667"/>
    <path id="Path_5" data-name="Path 5" d="M462.008,603.84a3.576,3.576,0,0,0-.83,1.288c-.009.028-.02.055-.03.083l0,.009a7.149,7.149,0,0,1-12.808,1.376,7.227,7.227,0,0,1-.632-1.283c-.011-.034-.023-.068-.035-.1l-.028-.077a3.579,3.579,0,0,0-6.713,2.484l0,.005.008.023a14.3,14.3,0,0,0,26.894.114c.019-.045.036-.091.053-.137.026-.071.05-.143.072-.216a3.58,3.58,0,0,0-5.952-3.567Z" transform="translate(-4.092 -209.311)" fill="#ef7667"/>
    <path id="Path_6" data-name="Path 6" d="M1160.819,370.213l-1.649,1.284a3.624,3.624,0,0,0-.838,4.849,3.579,3.579,0,0,0,5.179.842l4.867-3.789,1.408-1.1.042-.033a5.963,5.963,0,0,0-.143-9.52l-.158-.113-.01-.007a14.316,14.316,0,1,0,.587,23.03h0a3.631,3.631,0,0,0,.666-4.966,3.579,3.579,0,0,0-5.064-.68l-.02-.026-.006,0a7.157,7.157,0,1,1-2.075-12.413.238.238,0,0,1,.067.412Z" transform="translate(-613.306 -0.043)" fill="#ef7667"/>
  </g>
</svg>
